<?xml version="1.0" encoding="UTF-8"?>
<!DOCTYPE svg PUBLIC "-//W3C//DTD SVG 1.1//EN" "http://www.w3.org/Graphics/SVG/1.1/DTD/svg11.dtd">
<!-- Creator: CorelDRAW 2018 (64-Bit) -->
<svg xmlns="http://www.w3.org/2000/svg" xml:space="preserve" width="15.8241mm" height="12.8936mm" version="1.1" style="shape-rendering:geometricPrecision; text-rendering:geometricPrecision; image-rendering:optimizeQuality; fill-rule:evenodd; clip-rule:evenodd"
viewBox="0 0 1397.13 1138.39"
 xmlns:xlink="http://www.w3.org/1999/xlink">
 <defs>
  <style type="text/css">
   <![CDATA[
    .str0 {stroke:#F8F29E;stroke-width:185.41;stroke-miterlimit:22.9256}
    .fil0 {fill:#F8F29E}
   ]]>
  </style>
 </defs>
 <g id="Layer_x0020_1">
  <metadata id="CorelCorpID_0Corel-Layer"/>
  <g id="Layer_11_copy_2">
   <path class="fil0" d="M1295.04 274.22l-310.04 -178.99c-12.49,-7.21 -28.13,1.79 -28.13,16.24l0 110.57c-113.54,-8.42 -206.27,15.14 -275.63,70.8 -84.36,67.7 -104.54,160.05 -122.34,241.5 -14.48,66.26 -28.16,128.86 -72.23,185.09 -62.7,79.97 -175.43,128.01 -335.04,142.78 -35.7,3.3 -61.95,34.92 -58.65,70.61 3.12,33.66 31.4,58.93 64.54,58.91 1.99,0 4.03,-0.1 6.05,-0.28 196.61,-18.19 339.66,-82.76 425.24,-191.94 62.41,-79.59 80.73,-163.45 96.92,-237.48 15.74,-72.06 28.18,-128.98 76.76,-168 44.61,-35.8 110.12,-49.63 194.43,-41.79l0 117.2c0,14.44 15.63,23.45 28.12,16.25l310.05 -179c12.46,-7.21 12.46,-25.25 -0.04,-32.46z"/>
   <g>
    <path class="fil0" d="M961.92 343.72c-72.43,-15.96 -172.72,-24.88 -236.53,31.78 -36.39,32.32 -54.51,66.19 -76.76,168 -16.17,74.01 -34.49,157.88 -96.92,237.48 -85.56,109.17 -228.63,173.75 -425.24,191.94 -2.02,0.19 -4.06,0.28 -6.05,0.28 -3,0 -5.9,-0.42 -8.78,-0.84 11.85,11.95 28.09,19.38 45.87,19.38 1.99,0 4.03,-0.1 6.05,-0.28 196.61,-18.19 339.66,-82.76 425.24,-191.94 62.41,-79.59 80.73,-163.45 96.92,-237.48 15.74,-72.06 28.18,-128.98 76.76,-168 37.82,-30.35 90.78,-44.74 157.32,-43.7 14.06,-2.19 28.09,-4.4 42.13,-6.62z"/>
    <path class="fil0" d="M1295.04 274.22l-310.03 -178.99c-3,-1.75 -6.17,-2.49 -9.29,-2.49l282.23 162.96c12.5,7.21 12.5,25.25 0,32.48l-301.09 173.83 0 7.47c0,14.44 15.64,23.46 28.13,16.25l310.03 -179c12.52,-7.25 12.52,-25.29 0.02,-32.5z"/>
   </g>
   <path class="fil0 str0" d="M1295.04 274.22l-310.04 -178.99c-12.49,-7.21 -28.13,1.79 -28.13,16.24l0 110.57c-113.54,-8.42 -206.27,15.14 -275.63,70.8 -84.36,67.7 -104.54,160.05 -122.34,241.5 -14.48,66.26 -28.16,128.86 -72.23,185.09 -62.7,79.97 -175.43,128.01 -335.04,142.78 -35.7,3.3 -61.95,34.92 -58.65,70.61 3.12,33.66 31.4,58.93 64.54,58.91 1.99,0 4.03,-0.1 6.05,-0.28 196.61,-18.19 339.66,-82.76 425.24,-191.94 62.41,-79.59 80.73,-163.45 96.92,-237.48 15.74,-72.06 28.18,-128.98 76.76,-168 44.61,-35.8 110.12,-49.63 194.43,-41.79l0 117.2c0,14.44 15.63,23.45 28.12,16.25l310.05 -179c12.46,-7.21 12.46,-25.25 -0.04,-32.46z"/>
   <path class="fil0" d="M1295.04 864.17l-310.04 178.99c-12.49,7.21 -28.13,-1.79 -28.13,-16.24l0 -110.57c-113.54,8.42 -206.27,-15.14 -275.63,-70.8 -84.36,-67.7 -104.54,-160.05 -122.34,-241.5 -14.48,-66.26 -28.16,-128.86 -72.23,-185.09 -62.7,-79.97 -175.43,-128.01 -335.04,-142.78 -35.7,-3.3 -61.95,-34.92 -58.65,-70.61 3.12,-33.66 31.4,-58.93 64.54,-58.91 1.99,0 4.03,0.1 6.05,0.28 196.61,18.19 339.66,82.76 425.24,191.94 62.41,79.59 80.73,163.45 96.92,237.48 15.74,72.06 28.18,128.98 76.76,168 44.61,35.8 110.12,49.63 194.43,41.79l0 -117.2c0,-14.44 15.63,-23.45 28.12,-16.25l310.05 179c12.46,7.2 12.46,25.23 -0.04,32.46z"/>
   <g>
    <path class="fil0" d="M114.55 257.61c-0.97,-0.09 -1.82,-0.41 -2.76,-0.53 10.34,10.42 24.06,17.63 39.85,19.07 82.21,7.63 151.87,24.13 208.77,49.2 -62.67,-35.66 -144.85,-58.37 -245.86,-67.74z"/>
    <path class="fil0" d="M551.72 320.34c62.41,79.59 80.73,163.45 96.92,237.48 15.74,72.06 28.18,128.98 76.76,168 14.44,11.58 31.32,20.63 50.06,27.63 -4.43,-2.91 -8.9,-5.81 -12.98,-9.09 -48.58,-39.02 -61.02,-95.92 -76.76,-168 -16.17,-74.01 -34.49,-157.88 -96.92,-237.48 -42.99,-54.85 -100.53,-98.42 -172.04,-130.53 54.51,29.7 99.69,66.99 134.95,111.99z"/>
    <path class="fil0" d="M965.9 899.99c-77.74,5.77 -191.57,-6 -248.97,-30.26 55.87,32.93 169.84,51.23 248.97,50.28 0.26,-4.74 0.34,-9.75 0.2,-14.98 -0.04,-1.7 -0.11,-3.39 -0.2,-5.04z"/>
    <path class="fil0" d="M1295.04 831.69l-310.04 -179c-3,-1.74 -6.17,-2.48 -9.29,-2.48l282.23 162.96c12.5,7.21 12.5,25.25 0,32.48l-301.07 173.8 0 7.48c0,14.44 15.64,23.45 28.13,16.24l310.04 -178.99c12.5,-7.23 12.5,-25.27 0,-32.48z"/>
   </g>
   <path class="fil0 str0" d="M1295.04 864.17l-310.04 178.99c-12.49,7.21 -28.13,-1.79 -28.13,-16.24l0 -110.57c-113.54,8.42 -206.27,-15.14 -275.63,-70.8 -84.36,-67.7 -104.54,-160.05 -122.34,-241.5 -14.48,-66.26 -28.16,-128.86 -72.23,-185.09 -62.7,-79.97 -175.43,-128.01 -335.04,-142.78 -35.7,-3.3 -61.95,-34.92 -58.65,-70.61 3.12,-33.66 31.4,-58.93 64.54,-58.91 1.99,0 4.03,0.1 6.05,0.28 196.61,18.19 339.66,82.76 425.24,191.94 62.41,79.59 80.73,163.45 96.92,237.48 15.74,72.06 28.18,128.98 76.76,168 44.61,35.8 110.12,49.63 194.43,41.79l0 -117.2c0,-14.44 15.63,-23.45 28.12,-16.25l310.05 179c12.46,7.2 12.46,25.23 -0.04,32.46z"/>
  </g>
 </g>
</svg>
