<?xml version="1.0" encoding="UTF-8"?>
<!DOCTYPE svg PUBLIC "-//W3C//DTD SVG 1.1//EN" "http://www.w3.org/Graphics/SVG/1.1/DTD/svg11.dtd">
<!-- Creator: CorelDRAW 2018 (64-Bit) -->
<svg xmlns="http://www.w3.org/2000/svg" xml:space="preserve" width="16.7978mm" height="12.3204mm" version="1.1" style="shape-rendering:geometricPrecision; text-rendering:geometricPrecision; image-rendering:optimizeQuality; fill-rule:evenodd; clip-rule:evenodd"
viewBox="0 0 2288.82 1678.74"
 xmlns:xlink="http://www.w3.org/1999/xlink">
 <defs>
  <style type="text/css">
   <![CDATA[
    .str0 {stroke:#F8F29E;stroke-width:286.14;stroke-miterlimit:22.9256}
    .fil0 {fill:#F8F29E}
   ]]>
  </style>
 </defs>
 <g id="Layer_x0020_1">
  <metadata id="CorelCorpID_0Corel-Layer"/>
  <g id="Layer_8_copy_4">
   <path class="fil0" d="M1361.31 188.87l0 237.33c0,16.34 -8.73,31.48 -22.89,39.62l-578.36 333.9c-30.49,17.63 -30.49,61.67 0,79.3l578.36 333.9c14.16,8.18 22.89,23.29 22.89,39.62l0 237.33c0,35.22 -38.15,57.26 -68.65,39.62l-1126.71 -650.48c-30.51,-17.63 -30.51,-61.67 0,-79.3l1126.68 -650.48c30.52,-17.63 68.67,4.4 68.67,39.62z"/>
   <path class="fil0" d="M1338.41 1212.92l-67.99 -39.27c-0.37,1.24 -0.65,2.58 -0.91,3.9l11.7 6.76c14.16,8.18 22.89,23.29 22.89,39.62l0 237.33c0,28.83 -25.59,48.44 -51.6,45.06l40.18 23.18c30.49,17.63 68.65,-4.4 68.65,-39.62l0 -237.33c-0.03,-16.34 -8.76,-31.45 -22.92,-39.62z"/>
   <path class="fil0" d="M760.06 799.72l578.36 -333.9c14.16,-8.18 22.89,-23.29 22.89,-39.62l0 -237.33c0,-31.9 -31.26,-52.65 -59.84,-43.26 1.55,4.58 2.62,9.39 2.62,14.65l0 237.33c0,16.34 -8.73,31.48 -22.89,39.62l-578.36 333.9c-2.23,1.5 -21.31,14.77 -22.89,39.64 -1.62,26.07 17.43,41.98 19.27,43.44 18.27,12.67 36.53,25.32 54.82,38 -0.91,-3.22 -2,-8.94 0.55,-14.59 0.31,-0.72 0.68,-1.4 1.06,-2 -25.62,-19.24 -24.38,-59.2 4.43,-75.87z"/>
   <path class="fil0 str0" d="M1361.31 188.87l0 237.33c0,16.34 -8.73,31.48 -22.89,39.62l-578.36 333.9c-30.49,17.63 -30.49,61.67 0,79.3l578.36 333.9c14.16,8.18 22.89,23.29 22.89,39.62l0 237.33c0,35.22 -38.15,57.26 -68.65,39.62l-1126.71 -650.48c-30.51,-17.63 -30.51,-61.67 0,-79.3l1126.68 -650.48c30.52,-17.63 68.67,4.4 68.67,39.62z"/>
   <path class="fil0" d="M2145.73 188.87l0 237.33c0,16.34 -8.73,31.48 -22.89,39.62l-578.32 333.9c-30.51,17.63 -30.51,61.67 0,79.3l578.34 333.9c14.17,8.18 22.89,23.29 22.89,39.62l0 237.33c0,35.22 -38.14,57.26 -68.65,39.62l-1126.74 -650.48c-30.49,-17.63 -30.49,-61.67 0,-79.3l1126.68 -650.48c30.54,-17.63 68.67,4.4 68.67,39.62z"/>
   <path class="fil0" d="M2122.83 1212.92l-67.99 -39.27c-0.37,1.24 -0.65,2.58 -0.91,3.9l11.7 6.76c14.17,8.18 22.89,23.29 22.89,39.62l0 237.33c0,28.83 -25.58,48.44 -51.59,45.06l40.17 23.18c30.51,17.63 68.65,-4.4 68.65,-39.62l0 -237.33c-0.03,-16.34 -8.76,-31.45 -22.92,-39.62z"/>
   <path class="fil0" d="M1544.52 799.72l578.34 -333.9c14.17,-8.18 22.89,-23.29 22.89,-39.62l0 -237.33c0,-31.9 -31.24,-52.65 -59.83,-43.26 1.54,4.58 2.6,9.39 2.6,14.65l0 237.33c0,16.34 -8.72,31.48 -22.89,39.62l-578.34 333.9c-2.23,1.5 -21.32,14.77 -22.89,39.64 -1.64,26.07 17.43,41.98 19.25,43.44 18.29,12.67 36.54,25.32 54.83,38 -0.91,-3.22 -2,-8.94 0.55,-14.59 0.31,-0.72 0.68,-1.4 1.05,-2 -25.63,-19.24 -24.4,-59.2 4.44,-75.87z"/>
   <path class="fil0 str0" d="M2145.73 188.87l0 237.33c0,16.34 -8.73,31.48 -22.89,39.62l-578.32 333.9c-30.51,17.63 -30.51,61.67 0,79.3l578.34 333.9c14.17,8.18 22.89,23.29 22.89,39.62l0 237.33c0,35.22 -38.14,57.26 -68.65,39.62l-1126.74 -650.48c-30.49,-17.63 -30.49,-61.67 0,-79.3l1126.68 -650.48c30.54,-17.63 68.67,4.4 68.67,39.62z"/>
  </g>
 </g>
</svg>
