<?xml version="1.0" encoding="UTF-8"?>
<!DOCTYPE svg PUBLIC "-//W3C//DTD SVG 1.1//EN" "http://www.w3.org/Graphics/SVG/1.1/DTD/svg11.dtd">
<!-- Creator: CorelDRAW 2018 (64-Bit) -->
<svg xmlns="http://www.w3.org/2000/svg" xml:space="preserve" width="16.731mm" height="12.3232mm" version="1.1" style="shape-rendering:geometricPrecision; text-rendering:geometricPrecision; image-rendering:optimizeQuality; fill-rule:evenodd; clip-rule:evenodd"
viewBox="0 0 1486.57 1094.93"
 xmlns:xlink="http://www.w3.org/1999/xlink">
 <defs>
  <style type="text/css">
   <![CDATA[
    .fil0 {fill:#F8F29E}
    .fil1 {fill:#F8F29E;fill-rule:nonzero}
   ]]>
  </style>
 </defs>
 <g id="Layer_x0020_1">
  <metadata id="CorelCorpID_0Corel-Layer"/>
  <g id="Layer_8_copy_4_1_">
   <path class="fil0" d="M598.91 123.17l0 154.75c0,10.65 5.69,20.52 14.93,25.85l377.13 217.73c19.89,11.49 19.89,40.21 0,51.7l-377.13 217.73c-9.24,5.33 -14.93,15.18 -14.93,25.84l0 154.76c0,22.97 24.87,37.34 44.76,25.84l734.68 -424.17c19.89,-11.5 19.89,-40.21 0,-51.7l-734.68 -424.17c-19.89,-11.49 -44.76,2.88 -44.76,25.85z"/>
   <path class="fil0" d="M1378.37 521.49l-734.7 -424.17c-3.61,-2.09 -7.37,-3.06 -11.14,-3.55l708.51 409.06c19.89,11.49 19.89,40.21 0,51.7l-734.68 424.17c-1.87,1.08 -3.83,1.71 -5.75,2.35 5.75,17.05 26.14,26.09 43.07,16.3l734.68 -424.17c19.91,-11.5 19.91,-40.21 0.02,-51.7z"/>
   <g>
    <path class="fil0" d="M598.91 123.17l0 154.75c0,10.65 5.69,20.52 14.93,25.85l377.13 217.73c19.89,11.49 19.89,40.21 0,51.7l-377.13 217.73c-9.24,5.33 -14.93,15.18 -14.93,25.84l0 154.76c0,22.97 24.87,37.34 44.76,25.84l734.68 -424.17c19.89,-11.5 19.89,-40.21 0,-51.7l-734.68 -424.17c-19.89,-11.49 -44.76,2.88 -44.76,25.85z"/>
    <path id="1" class="fil1" d="M505.62 277.92l0 -154.75 186.59 0 0 154.75 0 0 -186.59 0zm154.87 -54.95l-93.29 161.58 0.08 0.05 -3.51 -2.11 -3.36 -2.16 -3.49 -2.43 -3.35 -2.49 -3.09 -2.47 -2.82 -2.38 -3.39 -3.07 -2.84 -2.77 -2.76 -2.87 -2.67 -2.97 -2.39 -2.82 -2.73 -3.44 -2.4 -3.26 -2.11 -3.06 -2.19 -3.4 -2.09 -3.47 -1.77 -3.17 -2.03 -3.93 -1.71 -3.64 -1.47 -3.36 -1.56 -3.93 -1.42 -3.97 -1.12 -3.5 -1.02 -3.52 -1.14 -4.44 -0.85 -3.97 -0.71 -3.91 -0.6 -3.99 -0.43 -3.56 -0.37 -4.38 -0.21 -4.34 -0.06 -3.91 186.59 0 -0.03 -1.92 -0.12 -2.35 -0.2 -2.41 -0.2 -1.61 -0.31 -2.05 -0.36 -1.99 -0.44 -2.05 -0.66 -2.56 -0.47 -1.65 -0.53 -1.65 -0.76 -2.14 -0.85 -2.13 -0.68 -1.58 -0.9 -1.88 -1.14 -2.22 -0.83 -1.48 -1.09 -1.8 -1.15 -1.79 -1 -1.46 -1.26 -1.71 -1.52 -1.91 -1.13 -1.34 -1.37 -1.51 -1.41 -1.48 -1.46 -1.4 -1.93 -1.76 -1.32 -1.12 -1.56 -1.24 -1.77 -1.31 -1.86 -1.29 -1.69 -1.09 -1.8 -1.08 0.08 0.05zm-0.08 -0.05l0.08 0.05 -5.28 -3.05 5.2 2.99zm283.91 379.37l-377.13 -217.73 93.29 -161.58 377.13 217.73 0.01 0 -93.3 161.58zm93.29 51.7l-93.29 -161.58 -0.04 0.02 -3.45 2.14 -3.49 2.52 -3.5 2.91 -3.04 2.9 -2.98 3.27 -2.68 3.37 -2.39 3.45 -2.16 3.6 -1.94 3.79 -1.69 3.88 -1.33 3.73 -1.1 3.84 -0.84 3.81 -0.6 3.8 -0.37 4.06 -0.12 3.84 0.12 3.84 0.37 4.06 0.6 3.8 0.84 3.81 1.1 3.84 1.36 3.8 1.7 3.91 1.86 3.62 2.14 3.58 2.45 3.55 2.68 3.37 3.08 3.37 3.05 2.91 3.39 2.81 3.49 2.52 3.47 2.16 93.31 -161.58 7.08 4.42 6.89 4.96 6.53 5.44 5.96 5.69 5.77 6.3 5.12 6.44 4.67 6.74 4.11 6.9 3.62 7.03 3.21 7.41 2.64 7.37 2.15 7.48 1.66 7.51 1.19 7.53 0.73 7.81 0.23 7.61 -0.23 7.61 -0.73 7.81 -1.19 7.53 -1.66 7.51 -2.15 7.48 -2.61 7.3 -3.2 7.4 -3.7 7.21 -4.13 6.9 -4.61 6.65 -5.12 6.44 -5.66 6.2 -5.95 5.69 -6.65 5.54 -6.89 4.96 -7.05 4.4 -0.04 0.02zm-470.42 56.14l377.13 -217.73 93.29 161.58 -377.13 217.73 -0.03 0.02 -93.27 -161.6zm125.01 106.63l-186.59 0 0 0 0.06 -3.91 0.21 -4.34 0.37 -4.38 0.43 -3.56 0.6 -3.99 0.71 -3.91 0.85 -3.97 1.14 -4.44 1.02 -3.52 1.12 -3.5 1.42 -3.97 1.56 -3.93 1.54 -3.52 1.64 -3.47 1.93 -3.76 1.97 -3.54 2.1 -3.47 2.08 -3.21 2.11 -3.06 2.4 -3.26 2.73 -3.44 2.58 -3.03 2.48 -2.75 2.56 -2.67 3.05 -2.99 3.39 -3.07 2.82 -2.38 3.09 -2.47 3.35 -2.49 3.49 -2.43 3.36 -2.16 3.46 -2.07 93.24 161.62 1.75 -1.04 1.69 -1.09 1.86 -1.29 1.77 -1.31 1.56 -1.24 1.32 -1.12 1.93 -1.76 1.66 -1.62 1.21 -1.26 1.18 -1.31 1.31 -1.55 1.52 -1.91 1.26 -1.71 1 -1.46 1.03 -1.59 1.1 -1.82 1.03 -1.85 1.04 -2.03 0.83 -1.73 0.76 -1.74 0.85 -2.13 0.76 -2.14 0.53 -1.65 0.47 -1.65 0.66 -2.56 0.44 -2.05 0.36 -1.99 0.31 -2.05 0.2 -1.61 0.2 -2.41 0.12 -2.35 0.03 -1.92 0 0zm-186.59 154.76l0 -154.76 186.59 0 0 154.76 0 0 -186.59 0zm91.41 -54.95l93.29 161.58 0.04 -0.02 -7.46 3.99 -7.74 3.47 -7.75 2.86 -8.16 2.41 -8.15 1.79 -8.13 1.23 -8.27 0.68 -8.14 0.12 -7.77 -0.39 -8.02 -0.92 -7.84 -1.43 -7.36 -1.82 -7.36 -2.32 -7.28 -2.8 -6.99 -3.22 -6.78 -3.63 -6.64 -4.12 -6.17 -4.38 -5.98 -4.82 -5.63 -5.16 -5.4 -5.6 -5.1 -6.02 -4.71 -6.34 -4.49 -6.94 -3.89 -7.02 -3.43 -7.25 -3.08 -7.85 -2.48 -7.85 -1.96 -8.06 -1.44 -8.39 -0.86 -8.41 -0.28 -8.42 186.59 0 -0.14 -4.18 -0.44 -4.26 -0.75 -4.35 -1 -4.15 -1.29 -4.07 -1.64 -4.18 -1.76 -3.73 -2.03 -3.64 -2.41 -3.72 -2.42 -3.26 -2.65 -3.12 -2.77 -2.88 -2.84 -2.6 -3.05 -2.46 -3.09 -2.19 -3.44 -2.13 -3.46 -1.86 -3.56 -1.63 -3.76 -1.45 -3.75 -1.18 -3.68 -0.92 -4.1 -0.74 -4.22 -0.49 -3.95 -0.2 -4.28 0.06 -4.38 0.36 -4.26 0.64 -4.26 0.94 -4.3 1.27 -3.91 1.44 -3.92 1.76 -3.71 1.98 0.04 -0.02zm827.98 -262.58l-734.68 424.17 -93.29 -161.58 734.68 -424.17 93.33 161.57 -0.04 0.02zm-93.29 -51.7l93.29 -161.58 0.01 0 7.08 4.42 6.89 4.96 6.53 5.44 5.96 5.69 5.77 6.3 5.12 6.44 4.67 6.74 4.11 6.9 3.62 7.03 3.21 7.41 2.64 7.37 2.15 7.48 1.66 7.51 1.19 7.53 0.73 7.81 0.23 7.61 -0.23 7.61 -0.73 7.81 -1.19 7.53 -1.66 7.51 -2.15 7.48 -2.61 7.3 -3.2 7.4 -3.7 7.21 -4.13 6.9 -4.61 6.65 -5.12 6.44 -5.66 6.2 -5.95 5.69 -6.65 5.54 -6.89 4.96 -7.05 4.4 -93.36 -161.55 -3.45 2.14 -3.49 2.52 -3.5 2.91 -3.04 2.9 -2.98 3.27 -2.68 3.37 -2.39 3.45 -2.16 3.6 -1.94 3.79 -1.69 3.88 -1.33 3.73 -1.1 3.84 -0.84 3.81 -0.6 3.8 -0.37 4.06 -0.12 3.84 0.12 3.84 0.37 4.06 0.6 3.8 0.84 3.81 1.1 3.84 1.36 3.8 1.7 3.91 1.86 3.62 2.14 3.58 2.45 3.55 2.68 3.37 3.08 3.37 3.05 2.91 3.39 2.81 3.49 2.52 3.47 2.16 0.01 0zm-641.39 -585.76l734.68 424.17 -93.29 161.58 -734.68 -424.17 -0.01 0 93.3 -161.58zm1.88 106.64l-186.59 0 0 0 0.28 -8.42 0.86 -8.41 1.44 -8.39 1.96 -8.06 2.48 -7.85 3.08 -7.85 3.43 -7.25 3.89 -7.02 4.49 -6.94 4.71 -6.34 5.1 -6.02 5.4 -5.6 5.63 -5.16 5.98 -4.82 6.17 -4.38 6.64 -4.12 6.78 -3.63 6.99 -3.22 7.28 -2.8 7.15 -2.26 7.56 -1.89 7.84 -1.42 8.02 -0.92 7.99 -0.39 7.93 0.12 8.27 0.68 8.13 1.23 7.96 1.75 8.17 2.38 7.93 2.92 7.74 3.47 7.44 3.97 -93.31 161.58 3.69 1.96 3.92 1.76 4.09 1.5 4.31 1.26 4.07 0.9 4.26 0.64 4.38 0.36 4.07 0.07 4.17 -0.21 4.22 -0.48 4.1 -0.75 3.88 -0.97 3.55 -1.12 3.76 -1.45 3.56 -1.63 3.46 -1.86 3.44 -2.13 3.09 -2.19 3.05 -2.46 2.84 -2.6 2.77 -2.88 2.65 -3.12 2.42 -3.26 2.41 -3.72 2.03 -3.64 1.76 -3.73 1.64 -4.18 1.29 -4.07 1 -4.15 0.75 -4.35 0.44 -4.26 0.14 -4.18 0 0z"/>
   </g>
   <path class="fil0" d="M93.29 123.41l0 154.76c0,10.65 5.69,20.52 14.93,25.84l377.13 217.73c19.89,11.5 19.89,40.21 0,51.7l-377.13 217.73c-9.24,5.34 -14.93,15.19 -14.93,25.85l0 154.75c0,22.97 24.87,37.34 44.76,25.85l734.68 -424.17c19.89,-11.49 19.89,-40.21 0,-51.7l-734.68 -424.17c-19.89,-11.5 -44.76,2.87 -44.76,25.84z"/>
   <path class="fil0" d="M872.74 521.73l-734.68 -424.17c-3.6,-2.09 -7.37,-3.07 -11.14,-3.55l708.51 409.05c19.89,11.5 19.89,40.21 0,51.7l-734.68 424.17c-1.87,1.08 -3.83,1.71 -5.75,2.35 5.75,17.06 26.14,26.09 43.07,16.31l734.68 -424.17c19.91,-11.49 19.91,-40.21 0,-51.7z"/>
   <g>
    <path class="fil0" d="M93.29 123.41l0 154.76c0,10.65 5.69,20.52 14.93,25.84l377.13 217.73c19.89,11.5 19.89,40.21 0,51.7l-377.13 217.73c-9.24,5.34 -14.93,15.19 -14.93,25.85l0 154.75c0,22.97 24.87,37.34 44.76,25.85l734.68 -424.17c19.89,-11.49 19.89,-40.21 0,-51.7l-734.68 -424.17c-19.89,-11.5 -44.76,2.87 -44.76,25.84z"/>
    <path id="1" class="fil1" d="M-0 278.17l0 -154.76 186.59 0 0 154.76 0 0 -186.59 0zm154.87 -54.95l-93.29 161.58 0.14 0.09 -3.57 -2.14 -3.07 -1.97 -3.5 -2.4 -3.63 -2.69 -3.34 -2.67 -2.8 -2.4 -2.92 -2.65 -3.07 -2.98 -2.76 -2.88 -2.48 -2.75 -2.58 -3.03 -2.73 -3.44 -2.4 -3.26 -2.11 -3.06 -2.19 -3.4 -2.09 -3.47 -1.77 -3.17 -2.03 -3.93 -1.71 -3.64 -1.47 -3.36 -1.56 -3.93 -1.42 -3.97 -1.12 -3.5 -1.02 -3.52 -1.14 -4.44 -0.85 -3.97 -0.71 -3.91 -0.6 -3.99 -0.43 -3.56 -0.37 -4.38 -0.21 -4.34 -0.06 -3.91 186.59 0 -0.03 -1.92 -0.12 -2.35 -0.2 -2.41 -0.2 -1.61 -0.31 -2.05 -0.36 -1.99 -0.44 -2.05 -0.66 -2.56 -0.47 -1.65 -0.53 -1.65 -0.76 -2.14 -0.85 -2.13 -0.68 -1.58 -0.9 -1.88 -1.14 -2.22 -0.83 -1.48 -1.09 -1.8 -1.15 -1.79 -1 -1.46 -1.26 -1.71 -1.52 -1.91 -1.31 -1.55 -1.18 -1.31 -1.41 -1.47 -1.69 -1.63 -1.47 -1.33 -1.31 -1.12 -1.81 -1.45 -2.04 -1.52 -1.87 -1.28 -1.4 -0.91 -1.87 -1.11 0.14 0.09zm-0.14 -0.09l0.14 0.09 -3.05 -1.76 2.91 1.67zm283.98 379.4l-377.13 -217.73 93.29 -161.58 377.13 217.73 0.04 0.02 -93.33 161.57zm93.29 51.7l-93.29 -161.58 -0.01 0 -3.47 2.16 -3.49 2.52 -3.39 2.81 -3.05 2.91 -3.08 3.37 -2.68 3.37 -2.45 3.55 -2.14 3.58 -1.86 3.62 -1.7 3.91 -1.36 3.8 -1.1 3.84 -0.84 3.81 -0.6 3.8 -0.37 4.06 -0.12 3.84 0.12 3.84 0.37 4.06 0.6 3.8 0.84 3.81 1.1 3.84 1.33 3.73 1.69 3.88 1.94 3.79 2.16 3.6 2.39 3.45 2.68 3.37 2.98 3.27 3.04 2.9 3.5 2.91 3.49 2.52 3.45 2.14 93.36 -161.55 7.05 4.4 6.89 4.96 6.65 5.54 5.95 5.69 5.66 6.2 5.12 6.44 4.61 6.65 4.13 6.9 3.7 7.21 3.2 7.4 2.61 7.3 2.15 7.48 1.66 7.51 1.19 7.53 0.73 7.81 0.23 7.61 -0.23 7.61 -0.73 7.81 -1.19 7.53 -1.66 7.51 -2.15 7.48 -2.64 7.37 -3.21 7.41 -3.62 7.03 -4.11 6.9 -4.67 6.74 -5.12 6.44 -5.77 6.3 -5.96 5.69 -6.53 5.44 -6.89 4.96 -7.08 4.42 -0.01 0zm-470.42 56.14l377.13 -217.73 93.29 161.58 -377.13 217.73 -93.33 -161.57 0.04 -0.02zm125.01 106.64l-186.59 0 0 0 0.06 -3.91 0.21 -4.34 0.37 -4.38 0.43 -3.56 0.6 -3.99 0.71 -3.91 0.85 -3.97 1.14 -4.44 1.02 -3.52 1.12 -3.5 1.42 -3.97 1.56 -3.93 1.54 -3.52 1.64 -3.47 1.93 -3.76 1.97 -3.54 2.1 -3.47 2.08 -3.21 1.96 -2.86 2.54 -3.47 2.9 -3.63 2.22 -2.61 2.47 -2.75 2.96 -3.09 3.07 -2.98 2.92 -2.65 2.8 -2.4 3.34 -2.67 3.63 -2.69 3.22 -2.21 3.07 -1.98 3.69 -2.22 93.36 161.55 1.98 -1.19 1.39 -0.9 1.58 -1.09 2.04 -1.52 1.81 -1.45 1.31 -1.12 1.47 -1.33 1.69 -1.63 1.61 -1.69 1.17 -1.3 0.96 -1.14 1.69 -2.12 1.4 -1.9 0.86 -1.26 1.03 -1.59 1.1 -1.82 1.03 -1.85 1.04 -2.03 0.83 -1.73 0.76 -1.74 0.85 -2.13 0.76 -2.14 0.53 -1.65 0.47 -1.65 0.66 -2.56 0.44 -2.05 0.36 -1.99 0.31 -2.05 0.2 -1.61 0.2 -2.41 0.12 -2.35 0.03 -1.92 0 0zm-186.59 154.75l0 -154.75 186.59 0 0 154.75 0 0 -186.59 0zm91.41 -54.95l93.29 161.58 0.01 0 -7.44 3.97 -7.74 3.47 -7.93 2.92 -8.17 2.38 -7.96 1.75 -8.13 1.23 -8.27 0.68 -7.93 0.12 -7.99 -0.39 -8.02 -0.92 -7.84 -1.42 -7.56 -1.89 -7.15 -2.26 -7.28 -2.8 -6.99 -3.22 -6.78 -3.63 -6.64 -4.12 -6.17 -4.38 -5.98 -4.82 -5.63 -5.16 -5.4 -5.6 -5.1 -6.02 -4.71 -6.34 -4.49 -6.94 -3.89 -7.02 -3.43 -7.25 -3.08 -7.85 -2.48 -7.85 -1.96 -8.06 -1.44 -8.39 -0.86 -8.41 -0.28 -8.42 186.59 0 -0.14 -4.18 -0.44 -4.26 -0.75 -4.35 -1 -4.15 -1.29 -4.07 -1.64 -4.18 -1.76 -3.73 -2.03 -3.64 -2.41 -3.72 -2.42 -3.26 -2.65 -3.12 -2.77 -2.88 -2.84 -2.6 -3.05 -2.46 -3.09 -2.19 -3.44 -2.13 -3.46 -1.86 -3.56 -1.63 -3.76 -1.45 -3.55 -1.12 -3.88 -0.97 -4.1 -0.75 -4.22 -0.48 -4.17 -0.21 -4.07 0.07 -4.38 0.36 -4.26 0.64 -4.07 0.9 -4.31 1.26 -4.09 1.5 -3.92 1.76 -3.69 1.96 0.01 0zm827.98 -262.59l-734.68 424.17 -93.29 -161.58 734.68 -424.17 93.3 161.58 -0.01 0zm-93.29 -51.7l93.29 -161.58 0.04 0.02 7.05 4.4 6.89 4.96 6.65 5.54 5.95 5.69 5.66 6.2 5.12 6.44 4.61 6.65 4.13 6.9 3.7 7.21 3.2 7.4 2.61 7.3 2.15 7.48 1.66 7.51 1.19 7.53 0.73 7.81 0.23 7.61 -0.23 7.61 -0.73 7.81 -1.19 7.53 -1.66 7.51 -2.15 7.48 -2.64 7.37 -3.21 7.41 -3.62 7.03 -4.11 6.9 -4.67 6.74 -5.12 6.44 -5.77 6.3 -5.96 5.69 -6.53 5.44 -6.89 4.96 -7.08 4.42 -93.31 -161.58 -3.47 2.16 -3.49 2.52 -3.39 2.81 -3.05 2.91 -3.08 3.37 -2.68 3.37 -2.45 3.55 -2.14 3.58 -1.86 3.62 -1.7 3.91 -1.36 3.8 -1.1 3.84 -0.84 3.81 -0.6 3.8 -0.37 4.06 -0.12 3.84 0.12 3.84 0.37 4.06 0.6 3.8 0.84 3.81 1.1 3.84 1.33 3.73 1.69 3.88 1.94 3.79 2.16 3.6 2.39 3.45 2.68 3.37 2.98 3.27 3.04 2.9 3.5 2.91 3.49 2.52 3.45 2.14 0.04 0.02zm-641.39 -585.75l734.68 424.17 -93.29 161.58 -734.68 -424.17 -0.04 -0.02 93.33 -161.57zm1.88 106.63l-186.59 0 0 0 0.28 -8.42 0.86 -8.41 1.44 -8.39 1.96 -8.06 2.48 -7.85 3.08 -7.85 3.43 -7.25 3.89 -7.02 4.49 -6.94 4.71 -6.34 5.1 -6.02 5.4 -5.6 5.63 -5.16 5.98 -4.82 6.17 -4.38 6.64 -4.12 6.78 -3.63 6.99 -3.22 7.28 -2.8 7.36 -2.32 7.36 -1.82 7.84 -1.43 8.02 -0.92 7.77 -0.39 8.14 0.12 8.27 0.68 8.13 1.23 8.15 1.79 8.16 2.41 7.75 2.86 7.74 3.47 7.46 3.99 -93.36 161.55 3.71 1.98 3.92 1.76 3.91 1.44 4.3 1.27 4.26 0.94 4.26 0.64 4.38 0.36 4.28 0.06 3.95 -0.2 4.22 -0.49 4.1 -0.74 3.68 -0.92 3.75 -1.18 3.76 -1.45 3.56 -1.63 3.46 -1.86 3.44 -2.13 3.09 -2.19 3.05 -2.46 2.84 -2.6 2.77 -2.88 2.65 -3.12 2.42 -3.26 2.41 -3.72 2.03 -3.64 1.76 -3.73 1.64 -4.18 1.29 -4.07 1 -4.15 0.75 -4.35 0.44 -4.26 0.14 -4.18 0 0z"/>
   </g>
  </g>
 </g>
</svg>
