<?xml version="1.0" encoding="UTF-8"?>
<!DOCTYPE svg PUBLIC "-//W3C//DTD SVG 1.1//EN" "http://www.w3.org/Graphics/SVG/1.1/DTD/svg11.dtd">
<!-- Creator: CorelDRAW 2018 (64-Bit) -->
<svg xmlns="http://www.w3.org/2000/svg" xml:space="preserve" width="11.5706mm" height="11.7004mm" version="1.1" style="shape-rendering:geometricPrecision; text-rendering:geometricPrecision; image-rendering:optimizeQuality; fill-rule:evenodd; clip-rule:evenodd"
viewBox="0 0 979.32 990.31"
 xmlns:xlink="http://www.w3.org/1999/xlink">
 <defs>
  <style type="text/css">
   <![CDATA[
    .str0 {stroke:#F8F29E;stroke-width:177.74;stroke-miterlimit:22.9256}
    .fil0 {fill:#F8F29E}
   ]]>
  </style>
 </defs>
 <g id="Layer_x0020_1">
  <metadata id="CorelCorpID_0Corel-Layer"/>
  <g id="Layer_7_copy">
   <path class="fil0" d="M317.36 901.43l-158.46 0c-38.68,0 -70.03,-31.35 -70.03,-70.03l0 -671.84c0,-38.68 31.35,-70.03 70.03,-70.03l158.46 0c38.67,0 70.03,31.35 70.03,70.03l0 671.84c0,38.68 -31.36,70.03 -70.03,70.03z"/>
   <path class="fil0" d="M820.42 900.77l-158.46 0c-38.67,0 -70.03,-31.35 -70.03,-70.03l0 -671.84c0,-38.68 31.36,-70.03 70.03,-70.03l158.46 0c38.68,0 70.03,31.35 70.03,70.03l0 671.84c0,38.68 -31.35,70.03 -70.03,70.03z"/>
   <path class="fil0" d="M329.5 90.76c13.67,12.78 22.34,30.83 22.34,51.03l0 671.84c0,38.68 -31.36,70.03 -70.03,70.03l-158.46 0c-4.16,0 -8.18,-0.53 -12.14,-1.23 12.51,11.7 29.2,19 47.69,19l158.46 0c38.67,0 70.03,-31.35 70.03,-70.03l0 -671.84c0,-34.52 -25.03,-63.03 -57.89,-68.8z"/>
   <path class="fil0" d="M832.56 90.1c13.67,12.78 22.34,30.83 22.34,51.03l0 671.84c0,38.68 -31.35,70.03 -70.03,70.03l-158.46 0c-4.16,0 -8.18,-0.53 -12.14,-1.23 12.52,11.7 29.2,19 47.69,19l158.46 0c38.68,0 70.03,-31.35 70.03,-70.03l0 -671.84c0,-34.52 -25.03,-63.05 -57.89,-68.8z"/>
   <path class="fil0 str0" d="M317.36 901.43l-158.46 0c-38.68,0 -70.03,-31.35 -70.03,-70.03l0 -671.84c0,-38.68 31.35,-70.03 70.03,-70.03l158.46 0c38.67,0 70.03,31.35 70.03,70.03l0 671.84c0,38.68 -31.36,70.03 -70.03,70.03z"/>
   <path class="fil0 str0" d="M820.42 900.77l-158.46 0c-38.67,0 -70.03,-31.35 -70.03,-70.03l0 -671.84c0,-38.68 31.36,-70.03 70.03,-70.03l158.46 0c38.68,0 70.03,31.35 70.03,70.03l0 671.84c0,38.68 -31.35,70.03 -70.03,70.03z"/>
  </g>
 </g>
</svg>
