<?xml version="1.0" encoding="UTF-8"?>
<!DOCTYPE svg PUBLIC "-//W3C//DTD SVG 1.1//EN" "http://www.w3.org/Graphics/SVG/1.1/DTD/svg11.dtd">
<!-- Creator: CorelDRAW 2018 (64-Bit) -->
<svg xmlns="http://www.w3.org/2000/svg" xml:space="preserve" width="11.1923mm" height="12.448mm" version="1.1" style="shape-rendering:geometricPrecision; text-rendering:geometricPrecision; image-rendering:optimizeQuality; fill-rule:evenodd; clip-rule:evenodd"
viewBox="0 0 942.53 1048.27"
 xmlns:xlink="http://www.w3.org/1999/xlink">
 <defs>
  <style type="text/css">
   <![CDATA[
    .str0 {stroke:#F8F29E;stroke-width:176.85;stroke-miterlimit:22.9256}
    .fil0 {fill:#F8F29E}
   ]]>
  </style>
 </defs>
 <g id="Layer_x0020_1">
  <metadata id="CorelCorpID_0Corel-Layer"/>
  <g id="Layer_4_copy">
   <path class="fil0" d="M150.39 94l683.06 394.37c27.54,15.9 27.54,55.65 0,71.55l-683.06 394.37c-27.54,15.9 -61.96,-3.97 -61.96,-35.77l0 -788.73c0,-31.8 34.41,-51.67 61.96,-35.77z"/>
   <path class="fil0" d="M833.45 488.36l-683.06 -394.37c-4.12,-2.37 -8.39,-3.71 -12.67,-4.58l660.36 381.26c27.54,15.9 27.54,55.65 0,71.55l-683.06 394.37c-6.17,3.55 -12.67,5.09 -19.07,5.32 11.6,16.59 34.68,23.75 54.43,12.36l683.06 -394.37c27.54,-15.9 27.54,-55.65 0,-71.55z"/>
   <path class="fil0 str0" d="M150.39 94l683.06 394.37c27.54,15.9 27.54,55.65 0,71.55l-683.06 394.37c-27.54,15.9 -61.96,-3.97 -61.96,-35.77l0 -788.73c0,-31.8 34.41,-51.67 61.96,-35.77z"/>
  </g>
 </g>
</svg>
