<?xml version="1.0" encoding="UTF-8"?>
<!DOCTYPE svg PUBLIC "-//W3C//DTD SVG 1.1//EN" "http://www.w3.org/Graphics/SVG/1.1/DTD/svg11.dtd">
<!-- Creator: CorelDRAW 2018 (64-Bit) -->
<svg xmlns="http://www.w3.org/2000/svg" xml:space="preserve" width="11.5932mm" height="11.1082mm" version="1.1" style="shape-rendering:geometricPrecision; text-rendering:geometricPrecision; image-rendering:optimizeQuality; fill-rule:evenodd; clip-rule:evenodd"
viewBox="0 0 981.73 940.66"
 xmlns:xlink="http://www.w3.org/1999/xlink">
 <defs>
  <style type="text/css">
   <![CDATA[
    .fil0 {fill:#F8F29E}
   ]]>
  </style>
 </defs>
 <g id="Layer_x0020_1">
  <metadata id="CorelCorpID_0Corel-Layer"/>
  <g id="Layer_11_copy_2_1_">
   <path class="fil0" d="M972.06 457.86l-105.99 -395.53c-4.27,-15.95 -24.21,-21.29 -35.89,-9.63l-63.79 63.79c-80.15,-67.14 -183.38,-107.6 -296.1,-107.6 -254.85,0 -461.44,206.59 -461.44,461.44 0,254.85 206.59,461.44 461.44,461.44 251.5,0 455.85,-201.24 461.18,-451.46l14.3 3.83c15.97,4.28 30.57,-10.31 26.29,-26.27zm-250.09 -33.7c2.74,15 4.38,30.38 4.38,46.17 0,141.41 -114.63,256.04 -256.04,256.04 -141.41,0 -256.04,-114.63 -256.04,-256.04 0,-141.41 114.63,-256.04 256.04,-256.04 55.97,0 107.57,18.16 149.7,48.62l-79.36 79.36c-11.67,11.66 -6.33,31.6 9.62,35.89l171.71 46z"/>
   <g>
    <path class="fil0" d="M338.91 699.42c-26.94,-19.31 -88.68,-69.4 -113.93,-155.8 -4.43,-15.15 -10.7,-40.66 -10.7,-73.3 0,-141.41 114.63,-256.04 256.04,-256.04 1.81,0 16.31,0.76 35.48,2.49 27.37,2.47 49.7,5.72 64.78,8.2 -19.83,-8.57 -48.94,-18.77 -85.36,-23.42 -43.23,-5.51 -76.24,-0.62 -83.84,0.59 -6.62,1.05 -55.58,9.21 -99.66,36.24 -62.15,38.11 -120.73,117.42 -123.01,214.16 -2.46,104.05 60.8,201.84 160.19,246.88z"/>
    <path class="fil0" d="M536.41 366.19c2.47,5.56 7.16,10.18 13.87,11.97l137.35 36.81c-0.42,-2.85 -0.69,-5.77 -1.21,-8.58l-150.01 -40.21z"/>
    <path class="fil0" d="M736.26 93.33c-24.33,-17.2 -50.53,-31.87 -78.02,-44.15 25.77,14.31 50.17,30.76 72.61,49.56l5.41 -5.4z"/>
    <path class="fil0" d="M972.06 457.86l-105.99 -395.53c-4.04,-15.06 -21.98,-20.48 -33.81,-11.2l104.21 388.95c4.27,15.95 -10.31,30.54 -26.26,26.27l-14.3 -3.83c-5.33,250.22 -209.68,451.46 -461.18,451.46 -67.19,0 -130.95,-14.47 -188.52,-40.3 66.36,36.95 142.75,58.08 224.08,58.08 251.5,0 455.85,-201.24 461.18,-451.46l14.3 3.83c15.97,4.28 30.57,-10.31 26.29,-26.27z"/>
   </g>
   <path class="fil0" d="M980.67 455.57l-105.99 -395.53c-2.85,-10.6 -10.86,-18.62 -21.47,-21.47 -10.58,-2.86 -21.55,0.08 -29.28,7.86l-58.28 58.28c-83.4,-67.43 -187.84,-104.71 -295.33,-104.71 -259.34,0 -470.33,210.97 -470.33,470.33 0,259.35 210.98,470.33 470.33,470.33 250.01,0 458.24,-200.38 469.55,-448.9l3.61 0.97c2.67,0.71 5.35,1.07 8,1.07 7.89,0 15.51,-3.11 21.31,-8.91 7.77,-7.77 10.7,-18.72 7.88,-29.33zm-20.43 16.73c-3.2,3.22 -7.76,4.45 -12.13,3.25l-395.53 -105.97c-4.38,-1.17 -7.71,-4.48 -8.87,-8.87 -1.18,-4.39 0.03,-8.92 3.25,-12.13l74.01 -74.01 0 0 11.85 -11.84c-2.28,-2.12 -4.27,-4.2 -6.94,-6.33 -2.31,-1.85 -4.57,-3.54 -6.79,-5.11l-0.06 0.06c-44.14,-30.1 -95.38,-45.96 -148.68,-45.96 -146.08,0 -264.93,118.84 -264.93,264.93 0,146.09 118.86,264.93 264.93,264.93 146.08,0 264.92,-118.84 264.92,-264.93 0,-11.17 -0.76,-22.41 -2.33,-34.02l157.79 42.26 -96.16 -25.77 127.84 34.27c-8.85,240.94 -210.23,435.8 -452.08,435.8 -249.53,0 -452.54,-203.01 -452.54,-452.54 0,-249.53 203.01,-452.54 452.54,-452.54 102.77,0 202.8,35.21 282.8,99.32 0.03,-0.03 0.06,-0.03 0.08,-0.04 2.28,2 4.57,4.06 6.88,6.21 2.18,2.03 4.09,4.01 6.13,6.01l70.28 -70.28c2.42,-2.4 5.57,-3.7 8.82,-3.7 1.1,0 2.2,0.14 3.3,0.42 4.39,1.18 7.72,4.51 8.87,8.89l105.99 395.54c1.18,4.39 -0.05,8.94 -3.25,12.14zm-242.77 -1.97c0,136.29 -110.86,247.15 -247.13,247.15 -136.29,0 -247.15,-110.86 -247.15,-247.15 0,-136.29 110.86,-247.15 247.15,-247.15 48.55,0 95.22,14.3 135.74,41.11l-71.7 71.71c-7.77,7.75 -10.7,18.71 -7.84,29.3 2.83,10.6 10.85,18.6 21.45,21.45l166.02 44.49c2.21,13.48 3.47,26.4 3.47,39.09z"/>
  </g>
 </g>
</svg>
