<?xml version="1.0" encoding="UTF-8"?>
<!DOCTYPE svg PUBLIC "-//W3C//DTD SVG 1.1//EN" "http://www.w3.org/Graphics/SVG/1.1/DTD/svg11.dtd">
<!-- Creator: CorelDRAW 2018 (64-Bit) -->
<svg xmlns="http://www.w3.org/2000/svg" xml:space="preserve" width="11.6928mm" height="11.6928mm" version="1.1" style="shape-rendering:geometricPrecision; text-rendering:geometricPrecision; image-rendering:optimizeQuality; fill-rule:evenodd; clip-rule:evenodd"
viewBox="0 0 991.25 991.25"
 xmlns:xlink="http://www.w3.org/1999/xlink">
 <defs>
  <style type="text/css">
   <![CDATA[
    .str0 {stroke:#F8F29E;stroke-width:178.03;stroke-miterlimit:22.9256}
    .fil0 {fill:#F8F29E}
   ]]>
  </style>
 </defs>
 <g id="Layer_x0020_1">
  <metadata id="CorelCorpID_0Corel-Layer"/>
  <g id="Layer_6_copy">
   <path class="fil0" d="M829.44 902.24l-667.63 0c-40.2,0 -72.8,-32.6 -72.8,-72.8l0 -667.63c0,-40.2 32.6,-72.8 72.8,-72.8l667.63 0c40.2,0 72.8,32.6 72.8,72.8l0 667.63c0,40.2 -32.6,72.8 -72.8,72.8z"/>
   <path class="fil0" d="M842.65 90.34c14.62,13.32 23.97,32.32 23.97,53.66l0 667.63c0,40.2 -32.6,72.8 -72.8,72.8l-667.62 0c-4.53,0 -8.92,-0.53 -13.21,-1.33 12.92,11.77 29.96,19.13 48.81,19.13l667.63 0c40.2,0 72.8,-32.6 72.8,-72.8l0 -667.63c0,-35.68 -25.7,-65.23 -59.59,-71.47z"/>
   <path class="fil0 str0" d="M829.44 902.24l-667.63 0c-40.2,0 -72.8,-32.6 -72.8,-72.8l0 -667.63c0,-40.2 32.6,-72.8 72.8,-72.8l667.63 0c40.2,0 72.8,32.6 72.8,72.8l0 667.63c0,40.2 -32.6,72.8 -72.8,72.8z"/>
  </g>
 </g>
</svg>
