<?xml version="1.0" encoding="UTF-8"?>
<!DOCTYPE svg PUBLIC "-//W3C//DTD SVG 1.1//EN" "http://www.w3.org/Graphics/SVG/1.1/DTD/svg11.dtd">
<!-- Creator: CorelDRAW 2018 (64-Bit) -->
<svg xmlns="http://www.w3.org/2000/svg" xml:space="preserve" width="23.3111mm" height="23.3111mm" version="1.1" style="shape-rendering:geometricPrecision; text-rendering:geometricPrecision; image-rendering:optimizeQuality; fill-rule:evenodd; clip-rule:evenodd"
viewBox="0 0 258.77 258.77"
 xmlns:xlink="http://www.w3.org/1999/xlink">
 <defs>
  <style type="text/css">
   <![CDATA[
    .fil0 {fill:#594C4C}
    .fil1 {fill:#F8F29E}
   ]]>
  </style>
 </defs>
 <g id="Layer_x0020_1">
  <metadata id="CorelCorpID_0Corel-Layer"/>
  <circle class="fil0" cx="129.38" cy="129.38" r="129.38"/>
  <path class="fil1" d="M202.77 182.75l-53.37 -53.37 53.17 -53.37c0.81,-0.81 0.81,-2.02 0,-2.83l-17.18 -17.18c-0.81,-0.81 -2.02,-0.81 -2.83,0l-53.17 53.37 -53.17 -53.17c-0.81,-0.81 -2.02,-0.81 -2.83,0l-17.18 17.18c-0.81,0.81 -0.81,2.02 0,2.83l52.97 53.17 -53.17 53.17c-0.81,0.81 -0.81,2.02 0,2.83l17.18 17.18c0.81,0.81 2.22,0.81 2.83,0l53.37 -53.17 53.17 53.17c0.81,0.81 2.22,0.81 3.03,0.2l17.18 -17.18c0.81,-0.81 0.81,-2.02 0,-2.83z"/>
 </g>
</svg>
