<?xml version="1.0" encoding="UTF-8"?>
<!DOCTYPE svg PUBLIC "-//W3C//DTD SVG 1.1//EN" "http://www.w3.org/Graphics/SVG/1.1/DTD/svg11.dtd">
<!-- Creator: CorelDRAW 2018 (64-Bit) -->
<svg xmlns="http://www.w3.org/2000/svg" xml:space="preserve" width="161.922mm" height="161.946mm" version="1.1" style="shape-rendering:geometricPrecision; text-rendering:geometricPrecision; image-rendering:optimizeQuality; fill-rule:evenodd; clip-rule:evenodd"
viewBox="0 0 16192.16 16194.65"
 xmlns:xlink="http://www.w3.org/1999/xlink">
 <defs>
  <style type="text/css">
   <![CDATA[
    .fil0 {fill:#594C4C}
   ]]>
  </style>
 </defs>
 <g id="Layer_x0020_1">
  <metadata id="CorelCorpID_0Corel-Layer"/>
  <g id="_2058777252448">
   <g>
    <path class="fil0" d="M6294.23 0c-3475.88,0 -6294.23,2818.34 -6294.23,6294.25 0,3475.91 2818.34,6294.25 6294.25,6294.25 1336.62,0 2576.2,-416.9 3595.13,-1127.05l0 -0.74 4668.12 4668.12c86.62,86.62 224.34,88.85 313.24,0l1258.09 -1258.12c86.62,-86.62 82.18,-230.27 0,-313.21l-4667.39 -4667.37c710.14,-1019.68 1127.05,-2259.28 1127.05,-3595.87 -0.01,-3475.92 -2818.35,-6294.26 -6294.26,-6294.26zm0 11107.51c-2658.4,0 -4813.25,-2154.85 -4813.25,-4813.25 0,-2658.4 2154.88,-4813.24 4813.25,-4813.24 2658.37,0 4813.25,2154.85 4813.25,4813.25 0,2658.4 -2154.85,4813.24 -4813.25,4813.24z"/>
    <polygon class="fil0" points="6664.49,3702.5 5924,3702.5 5924,5924 3702.5,5924 3702.5,6664.49 5924,6664.49 5924,8886.02 6664.49,8886.02 6664.49,6664.49 8886.02,6664.49 8886.02,5924 6664.49,5924 "/>
   </g>
  </g>
 </g>
</svg>
