<?xml version="1.0" encoding="UTF-8"?>
<!DOCTYPE svg PUBLIC "-//W3C//DTD SVG 1.1//EN" "http://www.w3.org/Graphics/SVG/1.1/DTD/svg11.dtd">
<!-- Creator: CorelDRAW 2018 (64-Bit) -->
<svg xmlns="http://www.w3.org/2000/svg" xml:space="preserve" width="6.6146mm" height="6.6146mm" version="1.1" style="shape-rendering:geometricPrecision; text-rendering:geometricPrecision; image-rendering:optimizeQuality; fill-rule:evenodd; clip-rule:evenodd"
viewBox="0 0 661.46 661.46"
 xmlns:xlink="http://www.w3.org/1999/xlink">
 <defs>
  <style type="text/css">
   <![CDATA[
    .fil1 {fill:#594C4C}
    .fil0 {fill:white}
   ]]>
  </style>
 </defs>
 <g id="Layer_x0020_1">
  <metadata id="CorelCorpID_0Corel-Layer"/>
  <circle class="fil0" cx="330.73" cy="330.73" r="224.89"/>
  <path class="fil1" d="M330.73 661.46c182.66,0 330.73,-148.07 330.73,-330.73 0,-182.66 -148.07,-330.73 -330.73,-330.73 -182.66,0 -330.73,148.07 -330.73,330.73 0,182.66 148.07,330.73 330.73,330.73zm4.61 -349.29c-25.84,0 -158.95,-75.49 -158.95,-75.49l0 -11.78c0,-14.61 11.85,-26.46 26.48,-26.46l264.93 0c14.65,0 26.5,11.85 26.5,26.46l-0.21 13.23c0,0 -131.67,74.04 -158.75,74.04zm158.75 -34.35c0,0 -130.43,70.73 -158.75,70.73 -25.84,0 -158.75,-70.73 -158.74,-70.73l-0.21 158.75c0,14.6 11.87,26.45 26.48,26.45l264.93 0c14.65,0 26.5,-11.85 26.5,-26.45l-0.21 -158.75z"/>
 </g>
</svg>
