<?xml version="1.0" encoding="UTF-8"?>
<!DOCTYPE svg PUBLIC "-//W3C//DTD SVG 1.1//EN" "http://www.w3.org/Graphics/SVG/1.1/DTD/svg11.dtd">
<!-- Creator: CorelDRAW 2018 (64-Bit) -->
<svg xmlns="http://www.w3.org/2000/svg" xml:space="preserve" width="13.44mm" height="13.44mm" version="1.1" style="shape-rendering:geometricPrecision; text-rendering:geometricPrecision; image-rendering:optimizeQuality; fill-rule:evenodd; clip-rule:evenodd"
viewBox="0 0 1344 1344"
 xmlns:xlink="http://www.w3.org/1999/xlink">
 <defs>
  <style type="text/css">
   <![CDATA[
    .fil1 {fill:#594C4C}
    .fil0 {fill:#F8F29E}
   ]]>
  </style>
 </defs>
 <g id="Layer_x0020_1">
  <metadata id="CorelCorpID_0Corel-Layer"/>
  <circle class="fil0" cx="672" cy="672" r="672"/>
  <g id="_1444576966336">
   <path class="fil1" d="M1047.39 335.11l-750.78 0c-5.78,0 -9.63,3.85 -9.63,9.62l0 115.51c0,5.78 3.85,9.63 9.63,9.63l750.78 0c5.78,0 9.63,-3.85 9.63,-9.63l0 -115.51c0,-5.77 -3.85,-9.62 -9.63,-9.62z"/>
   <path class="fil1" d="M1047.39 604.62l-750.78 0c-5.78,0 -9.63,3.85 -9.63,9.63l0 115.5c0,5.78 3.85,9.63 9.63,9.63l750.78 0c5.78,0 9.63,-3.85 9.63,-9.63l0 -115.5c0,-5.78 -3.85,-9.63 -9.63,-9.63z"/>
   <path class="fil1" d="M1047.39 874.13l-750.78 0c-5.78,0 -9.63,3.85 -9.63,9.63l0 115.51c0,5.77 3.85,9.62 9.63,9.62l750.78 0c5.78,0 9.63,-3.85 9.63,-9.62l0 -115.51c0,-5.78 -3.85,-9.63 -9.63,-9.63z"/>
  </g>
 </g>
</svg>
