<?xml version="1.0" encoding="UTF-8"?>
<!DOCTYPE svg PUBLIC "-//W3C//DTD SVG 1.1//EN" "http://www.w3.org/Graphics/SVG/1.1/DTD/svg11.dtd">
<!-- Creator: CorelDRAW 2018 (64-Bit) -->
<svg xmlns="http://www.w3.org/2000/svg" xml:space="preserve" width="5.2914mm" height="5.2914mm" version="1.1" style="shape-rendering:geometricPrecision; text-rendering:geometricPrecision; image-rendering:optimizeQuality; fill-rule:evenodd; clip-rule:evenodd"
viewBox="0 0 529.14 529.14"
 xmlns:xlink="http://www.w3.org/1999/xlink">
 <defs>
  <style type="text/css">
   <![CDATA[
    .str0 {stroke:#594C4C;stroke-width:52.9;stroke-linecap:round;stroke-linejoin:round;stroke-miterlimit:22.9256}
    .fil0 {fill:none}
   ]]>
  </style>
 </defs>
 <g id="Layer_x0020_1">
  <metadata id="CorelCorpID_0Corel-Layer"/>
  <path class="fil0 str0" d="M502.68 383.01l0 71.69c0.03,6.66 -1.34,13.25 -4.01,19.35 -2.67,6.09 -6.59,11.57 -11.51,16.07 -4.91,4.5 -10.71,7.92 -17.03,10.06 -6.32,2.13 -13.01,2.92 -19.65,2.32 -73.69,-7.99 -144.47,-33.12 -206.65,-73.37 -57.86,-36.69 -106.91,-85.64 -143.68,-143.39 -40.47,-62.34 -65.65,-133.33 -73.51,-207.19 -0.6,-6.61 0.19,-13.27 2.31,-19.56 2.12,-6.29 5.53,-12.07 10.02,-16.97 4.48,-4.9 9.93,-8.82 16.02,-11.5 6.08,-2.68 12.65,-4.07 19.3,-4.07l71.84 0c11.62,-0.12 22.89,3.99 31.7,11.55 8.81,7.57 14.56,18.07 16.19,29.55 3.03,22.95 8.66,45.47 16.76,67.16 3.22,8.55 3.92,17.85 2.01,26.78 -1.91,8.94 -6.35,17.14 -12.78,23.64l-30.41 30.35c34.08,59.83 83.72,109.37 143.67,143.39l30.41 -30.35c6.51,-6.42 14.73,-10.85 23.69,-12.76 8.95,-1.9 18.27,-1.21 26.84,2.01 21.72,8.09 44.29,13.7 67.28,16.73 11.64,1.63 22.26,7.48 29.85,16.43 7.6,8.94 11.63,20.36 11.34,32.08z"/>
 </g>
</svg>
