<?xml version="1.0" encoding="UTF-8"?>
<!DOCTYPE svg PUBLIC "-//W3C//DTD SVG 1.1//EN" "http://www.w3.org/Graphics/SVG/1.1/DTD/svg11.dtd">
<!-- Creator: CorelDRAW 2018 (64-Bit) -->
<svg xmlns="http://www.w3.org/2000/svg" xml:space="preserve" width="37.2156mm" height="37.2156mm" version="1.1" style="shape-rendering:geometricPrecision; text-rendering:geometricPrecision; image-rendering:optimizeQuality; fill-rule:evenodd; clip-rule:evenodd"
viewBox="0 0 1503.17 1503.17"
 xmlns:xlink="http://www.w3.org/1999/xlink">
 <defs>
  <style type="text/css">
   <![CDATA[
    .fil0 {fill:#F8F29E}
   ]]>
  </style>
 </defs>
 <g id="Layer_x0020_1">
  <metadata id="CorelCorpID_0Corel-Layer"/>
  <g id="Glyph_copy_2">
   <path class="fil0" d="M671 409.29c-154.1,0 -279.47,125.37 -279.47,279.45 0,154.12 125.37,279.47 279.47,279.47 154.1,0 279.47,-125.37 279.47,-279.47 0,-154.08 -125.35,-279.45 -279.47,-279.45z"/>
   <path class="fil0" d="M751.59 0c-414.43,0 -751.59,337.16 -751.59,751.59 0,414.43 337.16,751.59 751.59,751.59 414.43,0 751.59,-337.16 751.59,-751.59 0,-414.43 -337.16,-751.59 -751.59,-751.59zm318.74 1119.02l-151.58 -151.61c-66,58.74 -152.62,94.77 -247.72,94.77 -205.91,0 -373.42,-167.53 -373.42,-373.42 0,-205.89 167.51,-373.4 373.42,-373.4 205.91,0 373.42,167.51 373.42,373.4 0,76.94 -23.41,148.53 -63.48,208.03l155.81 155.81 -66.45 66.42z"/>
  </g>
 </g>
</svg>
