<?xml version="1.0" encoding="UTF-8"?>
<!DOCTYPE svg PUBLIC "-//W3C//DTD SVG 1.1//EN" "http://www.w3.org/Graphics/SVG/1.1/DTD/svg11.dtd">
<!-- Creator: CorelDRAW 2018 (64-Bit) -->
<svg xmlns="http://www.w3.org/2000/svg" xml:space="preserve" width="8.4667mm" height="7.3717mm" version="1.1" style="shape-rendering:geometricPrecision; text-rendering:geometricPrecision; image-rendering:optimizeQuality; fill-rule:evenodd; clip-rule:evenodd"
viewBox="0 0 846.66 737.16"
 xmlns:xlink="http://www.w3.org/1999/xlink">
 <defs>
  <style type="text/css">
   <![CDATA[
    .fil0 {fill:#F8F29E}
   ]]>
  </style>
 </defs>
 <g id="Layer_x0020_1">
  <metadata id="CorelCorpID_0Corel-Layer"/>
  <path class="fil0" d="M14.96 353.47l195.09 72.81 75.51 242.85c4.83,15.55 23.85,21.3 36.48,10.98l108.74 -88.65c11.4,-9.29 27.64,-9.75 39.55,-1.11l196.14 142.41c13.5,9.81 32.63,2.41 36.02,-13.9l143.68 -691.13c3.7,-17.83 -13.81,-32.7 -30.79,-26.13l-800.64 308.86c-19.76,7.62 -19.58,35.6 0.23,43.02zm258.43 34.06l381.28 -234.83c6.85,-4.21 13.9,5.05 8.02,10.51l-314.67 292.5c-11.06,10.29 -18.19,24.07 -20.21,39.02l-10.72 79.44c-1.42,10.6 -16.32,11.66 -19.24,1.39l-41.23 -144.85c-4.72,-16.52 2.16,-34.17 16.77,-43.18z"/>
 </g>
</svg>
