<?xml version="1.0" encoding="UTF-8"?>
<!DOCTYPE svg PUBLIC "-//W3C//DTD SVG 1.1//EN" "http://www.w3.org/Graphics/SVG/1.1/DTD/svg11.dtd">
<!-- Creator: CorelDRAW 2018 (64-Bit) -->
<svg xmlns="http://www.w3.org/2000/svg" xml:space="preserve" width="8.4666mm" height="8.4666mm" version="1.1" style="shape-rendering:geometricPrecision; text-rendering:geometricPrecision; image-rendering:optimizeQuality; fill-rule:evenodd; clip-rule:evenodd"
viewBox="0 0 846.66 846.66"
 xmlns:xlink="http://www.w3.org/1999/xlink">
 <defs>
  <style type="text/css">
   <![CDATA[
    .fil0 {fill:#F8F29E}
   ]]>
  </style>
 </defs>
 <g id="Layer_x0020_1">
  <metadata id="CorelCorpID_0Corel-Layer"/>
  <path class="fil0" d="M600.72 0l-354.78 0c-135.61,0 -245.94,110.33 -245.94,245.94l0 354.78c0,135.61 110.33,245.94 245.94,245.94l354.78 0c135.61,0 245.94,-110.33 245.94,-245.94l0 -354.78c0,-135.61 -110.33,-245.94 -245.94,-245.94zm179.8 600.72c0,99.14 -80.66,179.8 -179.8,179.8l-354.78 0c-99.14,0 -179.8,-80.66 -179.8,-179.8l0 -354.78c0,-99.14 80.66,-179.8 179.8,-179.8l354.78 0c99.14,0 179.8,80.66 179.8,179.8l0 354.78zm-357.19 -405.59c-125.83,0 -228.2,102.37 -228.2,228.2 0,125.83 102.37,228.2 228.2,228.2 125.83,0 228.2,-102.37 228.2,-228.2 0,-125.83 -102.37,-228.2 -228.2,-228.2zm0 390.26c-89.36,0 -162.06,-72.7 -162.06,-162.06 0,-89.36 72.7,-162.06 162.06,-162.06 89.36,0 162.06,72.7 162.06,162.06 0,89.36 -72.7,162.06 -162.06,162.06zm264.58 -393.57c0,18.27 -14.8,33.07 -33.07,33.07 -18.27,0 -33.07,-14.8 -33.07,-33.07 0,-18.27 14.8,-33.07 33.07,-33.07 18.27,0 33.07,14.8 33.07,33.07z"/>
 </g>
</svg>
