<?xml version="1.0" encoding="UTF-8"?>
<!DOCTYPE svg PUBLIC "-//W3C//DTD SVG 1.1//EN" "http://www.w3.org/Graphics/SVG/1.1/DTD/svg11.dtd">
<!-- Creator: CorelDRAW 2018 (64-Bit) -->
<svg xmlns="http://www.w3.org/2000/svg" xml:space="preserve" width="4.277mm" height="8.4666mm" version="1.1" style="shape-rendering:geometricPrecision; text-rendering:geometricPrecision; image-rendering:optimizeQuality; fill-rule:evenodd; clip-rule:evenodd"
viewBox="0 0 406.69 805.06"
 xmlns:xlink="http://www.w3.org/1999/xlink">
 <defs>
  <style type="text/css">
   <![CDATA[
    .fil0 {fill:#F8F29E}
   ]]>
  </style>
 </defs>
 <g id="Layer_x0020_1">
  <metadata id="CorelCorpID_0Corel-Layer"/>
  <path class="fil0" d="M12.99 428.77l88.25 0 0 363.31c0,7.17 5.81,12.98 12.98,12.98l149.63 0c7.18,0 12.99,-5.81 12.99,-12.98l0 -361.6 101.45 0c6.6,0 12.15,-4.94 12.9,-11.51l15.4 -133.75c0.43,-3.68 -0.74,-7.36 -3.2,-10.13 -2.46,-2.76 -5.99,-4.35 -9.69,-4.35l-116.85 0 0 -83.84c0,-25.27 13.61,-38.09 40.45,-38.09 3.82,0 76.4,0 76.4,0 7.17,0 12.98,-5.81 12.98,-12.98l0 -122.78c0,-7.17 -5.81,-12.98 -12.98,-12.98l-105.3 0c-0.74,-0.04 -2.39,-0.1 -4.82,-0.1 -18.27,0 -81.77,3.58 -131.93,49.73 -55.59,51.14 -47.86,112.37 -46.01,122.99l0 98.03 -92.64 0c-7.17,0 -12.99,5.81 -12.99,12.99l0 132.04c0,7.18 5.82,12.99 12.99,12.99z"/>
 </g>
</svg>
