<?xml version="1.0" encoding="UTF-8"?>
<!DOCTYPE svg PUBLIC "-//W3C//DTD SVG 1.1//EN" "http://www.w3.org/Graphics/SVG/1.1/DTD/svg11.dtd">
<!-- Creator: CorelDRAW 2018 (64-Bit) -->
<svg xmlns="http://www.w3.org/2000/svg" xml:space="preserve" width="5.0031mm" height="8.4668mm" version="1.1" style="shape-rendering:geometricPrecision; text-rendering:geometricPrecision; image-rendering:optimizeQuality; fill-rule:evenodd; clip-rule:evenodd"
viewBox="0 0 500.3 846.66"
 xmlns:xlink="http://www.w3.org/1999/xlink">
 <defs>
  <style type="text/css">
   <![CDATA[
    .fil0 {fill:#F8F29E}
   ]]>
  </style>
 </defs>
 <g id="Layer_x0020_1">
  <metadata id="CorelCorpID_0Corel-Layer"/>
  <path class="fil0" d="M39.45 213.8c-0.67,117.28 93.81,214.35 209.04,214.75 116.4,0.41 211.53,-94.45 212.13,-211.49 0.59,-119.81 -93,-216.73 -209.61,-217.05 -116.36,-0.33 -210.91,95.22 -211.57,213.8l0.01 -0.01zm210.74 -104.36c57.19,0.05 102.83,46.41 103.03,104.64 0.19,58.22 -45.32,104.88 -102.49,105.08 -57.36,0.22 -103.38,-45.81 -103.81,-103.82 -0.45,-58.77 45.6,-105.97 103.27,-105.9zm-213.73 424.28c49.86,39.63 108.09,55.79 172.69,62.64 -4.57,4.95 -7.49,8.36 -10.62,11.57l-28.51 29.05c-37.87,38.59 -75.74,77.17 -113.69,115.68 -9.81,9.96 -16.85,21.06 -17.55,35.59 -1,21.49 12.11,42.87 32.72,53.02 19.39,9.57 39.28,6.55 56.01,-10.2 37.23,-37.3 74.24,-74.82 110.67,-112.92 9.11,-9.53 14.07,-11.6 24.4,-0.63 23.86,25.38 48.36,50.13 72.86,74.88 11.92,12.04 23.85,24.08 35.69,36.2 9.46,9.67 20.09,16.57 33.73,17.53 21.53,1.5 43.48,-12.51 53.29,-33.79 8.98,-19.47 5.57,-40.23 -10.72,-56.97 -30.58,-31.41 -61.3,-62.68 -92.02,-93.94 -17.33,-17.64 -34.66,-35.29 -51.96,-52.95 -2.5,-2.55 -4.53,-4.81 -7.63,-8.26l-3.55 -3.94c35.33,-4.29 71.03,-10.76 103.62,-23.6 34.47,-13.58 65.49,-33.05 91.29,-59.95 16.81,-17.55 16.98,-39.61 3.34,-62.21 -11.95,-19.79 -32.71,-28.1 -54.97,-22.3 -11.45,3 -21.32,8.87 -30.57,16.07 -93.27,63.76 -220.92,61.97 -313.84,-2.92 -2.54,-1.79 -5.16,-3.52 -7.84,-5.11 -2.11,-1.25 -4.26,-2.42 -6.46,-3.48 -25.77,-12.35 -50.58,-6.6 -65.35,14.92 -17.27,25.14 -15.07,49.53 6.76,70.83 5.64,5.51 12.03,10.26 18.22,15.19z"/>
 </g>
</svg>
